HIERARCHY
ROOT Hips
{
  OFFSET -125.086 92.215 135.881
  CHANNELS 6 Xposition Yposition Zposition Zrotation Xrotation Yrotation
  JOINT LeftUpLeg
  {
    OFFSET 8.64259 1.95398 -2.38835
    CHANNELS 3 Zrotation Xrotation Yrotation
    JOINT LeftLeg
    {
      OFFSET 43.7702 0 0
      CHANNELS 3 Zrotation Xrotation Yrotation
      JOINT LeftFoot
      {
        OFFSET 40.6238 0 0
        CHANNELS 3 Zrotation Xrotation Yrotation
        JOINT LeftToeBase
        {
          OFFSET 12.7242 0 0
          CHANNELS 3 Zrotation Xrotation Yrotation
          End Site
          {
            OFFSET 0 0 0
          }
        }
      }
    }
  }
  JOINT RightUpLeg
  {
    OFFSET -8.2249 1.95398 -2.59336
    CHANNELS 3 Zrotation Xrotation Yrotation
    JOINT RightLeg
    {
      OFFSET 43.5653 0 0
      CHANNELS 3 Zrotation Xrotation Yrotation
      JOINT RightFoot
      {
        OFFSET 40.6238 0 0
        CHANNELS 3 Zrotation Xrotation Yrotation
        JOINT RightToeBase
        {
          OFFSET 12.7242 0 0
          CHANNELS 3 Zrotation Xrotation Yrotation
          End Site
          {
            OFFSET 0 0 0
          }
        }
      }
    }
  }
  JOINT Spine
  {
    OFFSET 0.165834 0.87714 6.61349
    CHANNELS 3 Zrotation Xrotation Yrotation
    JOINT Spine1
    {
      OFFSET 7.38963 1.71661e-005 0
      CHANNELS 3 Zrotation Xrotation Yrotation
      JOINT Spine2
      {
        OFFSET 11.9445 1.14441e-005 0
        CHANNELS 3 Zrotation Xrotation Yrotation
        JOINT Spine3
        {
          OFFSET 14.7254 4.19617e-005 0
          CHANNELS 3 Zrotation Xrotation Yrotation
          JOINT Spine4
          {
            OFFSET 10.9679 0 0
            CHANNELS 3 Zrotation Xrotation Yrotation
            JOINT RightShoulder
            {
              OFFSET 2.46616 -1.6653 3.69651
              CHANNELS 3 Zrotation Xrotation Yrotation
              JOINT RightArm
              {
                OFFSET 13.0012 0 0
                CHANNELS 3 Zrotation Xrotation Yrotation
                JOINT RightForeArm
                {
                  OFFSET 28.7848 1.52588e-005 0
                  CHANNELS 3 Zrotation Xrotation Yrotation
                  JOINT RightHand
                  {
                    OFFSET 26.5688 1.52588e-005 0
                    CHANNELS 3 Zrotation Xrotation Yrotation
                    End Site
                    {
                      OFFSET 0 0 0
                    }
                  }
                }
              }
            }
            JOINT LeftShoulder
            {
              OFFSET 2.38034 -1.29275 -3.7523
              CHANNELS 3 Zrotation Xrotation Yrotation
              JOINT LeftArm
              {
                OFFSET 16.3182 6.10352e-005 0
                CHANNELS 3 Zrotation Xrotation Yrotation
                JOINT LeftForeArm
                {
                  OFFSET 27.0901 0 0
                  CHANNELS 3 Zrotation Xrotation Yrotation
                  JOINT LeftHand
                  {
                    OFFSET 24.5451 1.52588e-005 0
                    CHANNELS 3 Zrotation Xrotation Yrotation
                    End Site
                    {
                      OFFSET 0 0 0
                    }
                  }
                }
              }
            }
            JOINT Neck
            {
              OFFSET 5.0226 -0.0266342 0
              CHANNELS 3 Zrotation Xrotation Yrotation
              JOINT Head
              {
                OFFSET 6.69363 2.86102e-005 0
                CHANNELS 3 Zrotation Xrotation Yrotation
                End Site
                {
                  OFFSET 0 0 0
                }
              }
            }
          }
        }
      }
    }
  }
}
MOTION
Frames:	15
Frame Time:	0.0416667
13.0149 96.784 -30.0329 -141.073 -87.4547 -139.913 -174.421 2.71571 90.7787 -15.8022 3.51222 2.44965 66.764 5.77345 -1.1774 32.074 -0.78074 5.74471 175.819 2.26018 89.5217 -14.5639 -9.92951 -0.658691 68.1557 -6.80352 0.986861 27.1576 0.379314 -1.10007 -0.30695 7.06002 -90.2313 12.7528 -0.720151 -0.367992 1.08188 -0.736047 -0.344784 -21.454 -0.573606 -0.575854 -1.4413 -0.573612 -0.575862 111.167 -51.5088 -68.4166 31.2182 0.523011 -14.6794 2.67934 -30.2377 -7.746 -11.9765 -0.858916 3.25676 -72.4587 -46.7857 105.369 -44.8035 -6.84286 -23.1366 4.16265 57.7933 0.00701311 -1.97668 -0.112991 -10.8682 9.11051 0.892741 2.00114 -19.103 0.846615 -3.01101 
12.9987 96.7883 -29.9997 -141.039 -87.5875 -140.056 -174.52 2.55756 90.6086 -15.229 3.77629 2.42162 66.6116 6.01513 -0.0925078 32.4641 -0.639348 3.88675 175.725 2.43987 89.3528 -14.7285 -10.1287 -0.641656 68.0531 -6.79161 0.763264 27.8567 0.297427 -1.42196 -0.332369 7.02958 -90.2306 12.8134 -0.770373 -0.370568 1.14267 -0.785866 -0.334692 -21.3934 -0.62387 -0.58343 -1.38073 -0.62387 -0.583431 111.121 -51.4733 -68.4813 31.0924 -0.38719 -14.4964 3.10941 -27.3763 -7.66749 -14.2171 -0.833539 1.64452 -72.1673 -46.9818 105.807 -44.7328 -6.995 -23.0271 4.12197 57.9972 0.007053 -2.4855 -0.0841494 -10.4974 8.40854 1.007 1.74487 -18.3064 0.908886 -2.26131 
13.0224 96.7959 -29.9764 -140.721 -87.719 -139.616 -174.547 2.64326 90.6814 -15.1763 3.68145 2.49032 66.6442 6.00884 -0.269899 32.3465 -0.637639 3.93174 175.781 2.48328 89.478 -14.6103 -9.95386 -0.607659 67.9589 -6.73774 0.777191 27.6837 0.316064 -1.31911 -0.331549 7.03406 -90.2512 12.8066 -0.778541 -0.408798 1.13579 -0.795775 -0.374136 -21.4001 -0.619685 -0.62388 -1.38744 -0.619686 -0.623883 111.066 -51.3683 -68.5464 31.0333 -0.510685 -14.4403 3.0964 -27.4548 -7.87243 -13.7991 -0.842581 1.95622 -72.0711 -47.1916 105.935 -44.4788 -6.88716 -23.1127 3.93792 57.0612 0.00687423 -2.39219 -0.0895914 -9.96402 8.76927 0.598639 1.53508 -18.269 0.46937 -1.66233 
13.0335 96.776 -29.9465 -139.795 -87.7656 -138.572 -174.494 2.85821 90.7835 -15.5444 3.7809 2.49625 66.8622 6.05378 -0.243267 32.1759 -0.64595 4.1293 175.858 2.2395 89.584 -14.152 -9.66095 -0.630271 68.3018 -6.90171 1.16518 26.9614 0.447299 -1.40573 -0.323601 7.0346 -90.2763 12.8172 -0.77481 -0.459314 1.1464 -0.794272 -0.424767 -21.3892 -0.600952 -0.67094 -1.37654 -0.600952 -0.670943 110.967 -51.1711 -68.6648 31.3302 -0.174805 -14.3704 2.77415 -28.0274 -7.91535 -13.1994 -0.767787 1.61949 -71.9291 -47.3609 106.139 -44.4563 -6.96983 -23.1273 3.97655 57.4377 0.00694482 -2.74225 -0.0714887 -10.2476 8.80188 0.568169 1.64824 -18.0634 0.39355 -1.52106 
13.0339 96.7723 -29.9311 -141.116 -87.8294 -139.841 -174.439 2.86331 90.8659 -15.4818 4.12328 2.48755 66.6796 6.02093 -0.0709101 32.6132 -0.680695 4.29242 175.873 2.2363 89.6422 -14.1277 -9.58309 -0.606575 68.1898 -6.8584 1.07056 26.9513 0.403711 -1.01275 -0.336072 7.03504 -90.2845 12.8214 -0.803476 -0.471845 1.15061 -0.82346 -0.436037 -21.3852 -0.624525 -0.691511 -1.37254 -0.624524 -0.691511 110.889 -51.111 -68.7746 31.4742 -0.164896 -14.2975 2.74344 -28.0556 -7.87734 -13.4678 -0.776734 1.55684 -71.9065 -47.3259 106.178 -44.5088 -7.12199 -23.0517 4.03694 57.504 0.00695743 -2.9192 -0.0616855 -10.4072 8.83985 0.572878 1.56161 -18.2146 0.403605 -1.40505 
13.0461 96.7928 -29.9391 -139.328 -87.7671 -138.074 -174.467 2.81588 90.8117 -15.4125 3.83779 2.48906 66.7935 6.05912 -0.138578 32.239 -0.630926 3.9156 175.888 2.34971 89.5992 -14.3161 -9.64404 -0.657651 68.098 -6.70059 1.36102 27.3782 0.387863 -1.50689 -0.330173 7.03517 -90.2853 12.8046 -0.792142 -0.475533 1.13386 -0.812304 -0.440221 -21.4019 -0.612612 -0.691624 -1.38923 -0.612613 -0.691627 110.854 -51.069 -68.8197 31.6084 -0.104543 -14.2924 2.59145 -28.0842 -8.03621 -13.1631 -0.74538 1.43545 -71.865 -47.3396 106.242 -44.5612 -7.17273 -23.0159 4.11141 57.5139 0.00695932 -3.26663 -0.0431052 -10.3988 9.05596 0.600858 1.73123 -18.44 0.423584 -1.6349 
13.05 96.7817 -29.9369 -140.888 -87.7971 -139.601 -174.535 2.8433 90.8181 -15.4766 3.65837 2.56587 66.7853 5.9938 -0.420905 32.4824 -0.65486 4.05438 175.839 2.233 89.6228 -14.154 -9.6465 -0.580063 68.1756 -6.82741 1.15086 27.0394 0.450253 -1.54975 -0.332123 7.03406 -90.2936 12.8042 -0.799995 -0.491259 1.13344 -0.820846 -0.455584 -21.4023 -0.61537 -0.708982 -1.38961 -0.615374 -0.708988 110.882 -51.0569 -68.7749 31.6413 -0.0764858 -14.3211 2.58663 -28.1728 -7.92805 -13.3455 -0.74042 1.29595 -71.9065 -47.324 106.179 -44.5068 -7.07658 -22.9696 4.05245 57.2923 0.00691735 -2.66527 -0.0761286 -10.084 8.92629 0.56163 1.7464 -18.317 0.37853 -1.60869 
13.0295 96.7841 -29.9329 -138.604 -87.7178 -137.405 -174.48 2.78901 90.7655 -15.4144 3.74442 2.46683 66.7558 6.02805 -0.16271 32.248 -0.641035 4.03192 175.839 2.38182 89.5421 -14.4007 -9.75795 -0.633055 68.1045 -6.74559 1.18643 27.6407 0.345473 -1.52836 -0.329782 7.03404 -90.2826 12.797 -0.790167 -0.470963 1.12625 -0.810124 -0.435724 -21.4095 -0.612094 -0.686662 -1.39685 -0.612102 -0.686676 110.875 -51.1268 -68.7973 31.5333 -0.194333 -14.3573 2.63327 -28.3063 -7.98526 -13.3053 -0.749403 1.39757 -71.8489 -47.284 106.273 -44.482 -7.00684 -23.0325 3.993 57.2165 0.00690314 -2.31537 -0.0932556 -9.97986 8.94003 0.609081 1.69751 -18.3242 0.440168 -1.64327 
13.0496 96.7903 -29.9336 -140.97 -87.8424 -139.649 -174.442 2.86853 90.8831 -15.4663 4.04191 2.51094 66.6558 6.00906 -0.0615181 32.6562 -0.641915 3.79143 175.958 2.22982 89.7139 -14.1097 -9.53738 -0.678257 68.1154 -6.77966 1.20504 27.1698 0.443021 -1.67954 -0.336182 7.03445 -90.2973 12.8006 -0.809844 -0.497673 1.12981 -0.830964 -0.461562 -21.4059 -0.622842 -0.718061 -1.39325 -0.622836 -0.718066 110.962 -51.1342 -68.6664 31.4747 -0.209531 -14.4851 2.69647 -28.5579 -7.86194 -13.3722 -0.762185 1.4772 -71.8815 -47.3997 106.209 -44.4322 -7.11883 -23.1091 4.09332 57.3487 0.00692797 -2.31886 -0.0932263 -10.1585 8.50715 0.54985 1.27166 -17.7454 0.410214 -1.14738 
13.0534 96.7789 -29.9451 -139.74 -87.7406 -138.435 -174.443 2.83479 90.8716 -15.4768 3.72943 2.49971 66.8249 6.01843 -0.342778 32.2614 -0.63607 3.96576 175.887 2.32326 89.6373 -14.3397 -9.62293 -0.631943 68.2246 -6.78487 1.32061 27.0395 0.461038 -1.64077 -0.333819 7.03637 -90.2908 12.7941 -0.802082 -0.48588 1.12329 -0.822688 -0.450114 -21.4124 -0.618974 -0.704475 -1.39979 -0.618975 -0.704476 110.893 -51.1295 -68.7698 31.5402 -0.229531 -14.4593 2.73183 -28.2898 -7.83302 -13.528 -0.760912 1.38621 -71.8808 -47.2329 106.229 -44.6076 -7.10121 -23.0144 4.15129 57.0978 0.00688101 -1.96975 -0.110353 -9.99649 8.74936 0.500833 1.61471 -18.1267 0.339351 -1.54508 
13.0553 96.7787 -29.9492 -140.247 -87.7456 -138.962 -174.422 2.87329 90.869 -15.5887 3.87704 2.47605 66.7986 6.01 -0.259588 32.5554 -0.661324 4.089 175.917 2.31311 89.6414 -14.327 -9.55858 -0.67099 68.1866 -6.74221 1.36003 27.2034 0.440868 -1.71208 -0.333695 7.03844 -90.2862 12.7841 -0.799613 -0.477253 1.11332 -0.819836 -0.441603 -21.4224 -0.619217 -0.695506 -1.40979 -0.619213 -0.695506 110.933 -51.1496 -68.7125 31.4996 -0.190968 -14.5212 2.73239 -28.4669 -7.81222 -13.518 -0.761683 1.39819 -71.8836 -47.2842 106.219 -44.4842 -7.06529 -23.0543 4.07944 57.0747 0.00687674 -2.03985 -0.106821 -9.97598 8.74221 0.533414 1.40563 -18.0914 0.398833 -1.40504 
13.0565 96.786 -29.9657 -137.509 -87.6326 -136.246 -174.422 2.78632 90.8305 -15.4524 3.7346 2.45832 66.7802 6.03016 -0.147755 32.3151 -0.624918 3.80178 175.914 2.33965 89.6127 -14.3325 -9.81021 -0.687433 68.15 -6.80932 1.16713 27.285 0.405028 -1.51807 -0.328573 7.04079 -90.2695 12.7747 -0.781471 -0.446312 1.10394 -0.800357 -0.41149 -21.4319 -0.611215 -0.660539 -1.41922 -0.611215 -0.660546 111.028 -51.3328 -68.5981 31.2978 -0.373862 -14.5845 2.93105 -28.0448 -7.76819 -13.4402 -0.757985 1.40478 -71.9512 -47.0456 106.139 -44.706 -7.11107 -22.955 4.20767 56.9733 0.006858 -2.08797 -0.104822 -10.1411 8.91348 0.45994 1.36123 -18.099 0.352682 -1.55519 
13.0768 96.7897 -29.9701 -137.433 -87.6977 -136.237 -174.455 2.80606 90.7597 -15.3765 3.82213 2.43125 66.636 6.0155 0.0474009 32.5469 -0.609104 3.4626 175.835 2.37721 89.5181 -14.3182 -9.84034 -0.639634 68.0346 -6.68627 1.30026 27.4194 0.437755 -2.01844 -0.336836 7.04223 -90.2598 12.7868 -0.793193 -0.424786 1.116 -0.811116 -0.389471 -21.4199 -0.628861 -0.643539 -1.40728 -0.62886 -0.643541 111.036 -51.3799 -68.5944 31.3669 -0.238513 -14.4883 2.79834 -28.076 -7.87829 -13.4199 -0.786668 1.67012 -71.9537 -46.9912 106.141 -44.7566 -7.15722 -22.8956 4.19644 57.0467 0.00687155 -2.24711 -0.0965955 -9.92065 9.09302 0.456402 1.44567 -18.3925 0.360197 -1.76958 
13.0588 96.7823 -29.9707 -136.579 -87.6365 -135.3 -174.426 2.81142 90.8494 -15.4328 3.60596 2.4665 66.8102 6.01426 -0.373468 32.2391 -0.651567 4.16103 175.919 2.34169 89.6299 -14.2769 -9.74476 -0.677169 68.1364 -6.7895 1.2194 27.1453 0.401045 -1.27269 -0.329313 7.04195 -90.2701 12.7886 -0.78318 -0.446507 1.11782 -0.802061 -0.411613 -21.418 -0.61278 -0.661235 -1.40534 -0.612771 -0.66124 111.032 -51.3101 -68.588 31.3498 -0.249011 -14.5114 2.87428 -28.3754 -7.70696 -13.3893 -0.777771 1.60744 -71.8691 -47.1845 106.253 -44.5771 -7.249 -22.9553 4.23709 57.0484 0.00687186 -2.399 -0.0893393 -9.90128 9.03621 0.510196 1.44847 -18.3956 0.397587 -1.64563 
13.0702 96.7878 -29.966 -136.672 -87.6045 -135.443 -174.487 2.76783 90.7671 -15.4319 3.74269 2.4873 66.6981 5.99491 -0.102554 32.4383 -0.651787 4.04206 175.861 2.37503 89.551 -14.4036 -9.85983 -0.659297 68.1986 -6.76134 1.31777 27.1855 0.465064 -1.89583 -0.322964 7.04223 -90.2567 12.7957 -0.764159 -0.421681 1.12487 -0.78198 -0.387649 -21.411 -0.602099 -0.631852 -1.39831 -0.602097 -0.631853 111.122 -51.4536 -68.4753 31.243 -0.23818 -14.5092 2.98121 -28.1992 -7.59969 -13.5622 -0.782579 1.55943 -71.9982 -47.0198 106.068 -44.5816 -7.16897 -22.8435 4.15786 56.7172 0.00681124 -2.35681 -0.0921515 -9.92043 9.02073 0.533196 1.55295 -18.5165 0.442658 -1.97999 
